<?xml version="1.0" encoding="utf-8"?>
<!-- Generator: Adobe Illustrator 23.1.0, SVG Export Plug-In . SVG Version: 6.00 Build 0)  -->
<svg version="1.1" id="Layer_1" xmlns="http://www.w3.org/2000/svg" xmlns:xlink="http://www.w3.org/1999/xlink" x="0px" y="0px"
	 viewBox="0 0 36 36" style="enable-background:new 0 0 36 36;" xml:space="preserve">
<style type="text/css">
	.st0{fill:#0080FF;}
	.st1{fill:#FFFFFF;}
</style>
<g>
	<g>
		<path class="st0" d="M35.76,18.23c0-9.77-7.92-17.69-17.69-17.69S0.37,8.46,0.37,18.23c0,8.83,6.47,16.15,14.93,17.48V23.34h-4.49
			v-5.11h4.49v-3.9c0-4.43,2.64-6.88,6.68-6.88c1.94,0,3.96,0.35,3.96,0.35v4.35h-2.23c-2.2,0-2.88,1.36-2.88,2.76v3.32h4.91
			l-0.78,5.11h-4.12V35.7C29.29,34.37,35.76,27.06,35.76,18.23z"/>
		<path class="st1" d="M24.95,23.34l0.78-5.11h-4.91v-3.32c0-1.4,0.69-2.76,2.88-2.76h2.23V7.79c0,0-2.02-0.35-3.96-0.35
			c-4.04,0-6.68,2.45-6.68,6.88v3.9h-4.49v5.11h4.49V35.7c0.9,0.14,1.82,0.22,2.76,0.22s1.86-0.07,2.76-0.22V23.34H24.95z"/>
	</g>
</g>
</svg>
