<?xml version="1.0" encoding="utf-8"?>
<!-- Generator: Adobe Illustrator 23.1.0, SVG Export Plug-In . SVG Version: 6.00 Build 0)  -->
<svg version="1.1" id="Layer_1" xmlns="http://www.w3.org/2000/svg" xmlns:xlink="http://www.w3.org/1999/xlink" x="0px" y="0px"
	 viewBox="0 0 36 36" style="enable-background:new 0 0 36 36;" xml:space="preserve">
<style type="text/css">
	.st0{fill:url(#SVGID_1_);}
	.st1{fill:#FFFFFF;}
</style>
<g>
	<linearGradient id="SVGID_1_" gradientUnits="userSpaceOnUse" x1="1.494" y1="4.2295" x2="36.8686" y2="34.1068">
		<stop  offset="1.104800e-03" style="stop-color:#FFE185"/>
		<stop  offset="0.2094" style="stop-color:#FFBB36"/>
		<stop  offset="0.3765" style="stop-color:#FF5176"/>
		<stop  offset="0.5238" style="stop-color:#F63395"/>
		<stop  offset="0.7394" style="stop-color:#A436D2"/>
		<stop  offset="1" style="stop-color:#5F4EED"/>
	</linearGradient>
	<circle class="st0" cx="18.07" cy="18.23" r="17.69"/>
	<g>
		<g>
			<path class="st1" d="M23.56,11.53c-0.67,0-1.22,0.54-1.22,1.22c0,0.67,0.54,1.22,1.22,1.22c0.67,0,1.22-0.54,1.22-1.22
				C24.77,12.08,24.23,11.53,23.56,11.53z"/>
			<path class="st1" d="M18.15,13.09c-2.82,0-5.11,2.29-5.11,5.11c0,2.82,2.29,5.11,5.11,5.11s5.11-2.29,5.11-5.11
				C23.26,15.38,20.97,13.09,18.15,13.09z M18.15,21.47c-1.8,0-3.27-1.47-3.27-3.27c0-1.8,1.47-3.27,3.27-3.27
				c1.8,0,3.27,1.47,3.27,3.27C21.42,20.01,19.95,21.47,18.15,21.47z"/>
			<path class="st1" d="M22.21,28.57h-8.28c-3.44,0-6.23-2.8-6.23-6.23v-8.28c0-3.44,2.79-6.23,6.23-6.23h8.28
				c3.44,0,6.23,2.79,6.23,6.23v8.28C28.44,25.78,25.64,28.57,22.21,28.57z M13.92,9.78c-2.36,0-4.28,1.92-4.28,4.28v8.28
				c0,2.36,1.92,4.28,4.28,4.28h8.28c2.36,0,4.28-1.92,4.28-4.28v-8.28c0-2.36-1.92-4.28-4.28-4.28H13.92z"/>
		</g>
	</g>
</g>
</svg>
