<?xml version="1.0" encoding="utf-8"?>
<!-- Generator: Adobe Illustrator 23.1.0, SVG Export Plug-In . SVG Version: 6.00 Build 0)  -->
<svg version="1.1" id="Layer_1" xmlns="http://www.w3.org/2000/svg" xmlns:xlink="http://www.w3.org/1999/xlink" x="0px" y="0px"
	 viewBox="0 0 36 36" style="enable-background:new 0 0 36 36;" xml:space="preserve">
<style type="text/css">
	.st0{fill-rule:evenodd;clip-rule:evenodd;fill:#FF1753;}
	.st1{fill-rule:evenodd;clip-rule:evenodd;fill:#FFFFFF;}
	.st2{fill-rule:evenodd;clip-rule:evenodd;fill:#00C9D0;}
</style>
<g>
	<circle cx="18.07" cy="18.23" r="17.69"/>
	<g>
		<path class="st0" d="M22.71,15.18c1.43,1.02,3.19,1.63,5.09,1.63v-3.65c-0.36,0-0.72-0.04-1.07-0.11v2.87
			c-1.9,0-3.65-0.6-5.09-1.63v7.45c0,3.73-3.02,6.74-6.75,6.74c-1.39,0-2.68-0.42-3.76-1.14c1.23,1.25,2.93,2.03,4.82,2.03
			c3.73,0,6.75-3.02,6.75-6.74L22.71,15.18L22.71,15.18z M24.03,11.5c-0.73-0.8-1.21-1.83-1.32-2.98V8.05H21.7
			C21.95,9.51,22.82,10.75,24.03,11.5L24.03,11.5z M13.5,24.48c-0.41-0.54-0.63-1.19-0.63-1.87c0-1.7,1.38-3.08,3.09-3.08
			c0.32,0,0.63,0.05,0.94,0.14v-3.73c-0.35-0.05-0.71-0.07-1.07-0.06v2.9c-0.3-0.1-0.62-0.14-0.94-0.14c-1.7,0-3.09,1.38-3.09,3.09
			C11.8,22.93,12.49,23.98,13.5,24.48z"/>
		<path class="st1" d="M21.64,14.29c1.43,1.02,3.19,1.63,5.09,1.63v-2.87c-1.06-0.23-2-0.78-2.7-1.55
			c-1.21-0.75-2.08-1.99-2.33-3.45h-2.66v14.57c-0.01,1.7-1.39,3.07-3.09,3.07c-1,0-1.89-0.48-2.46-1.22
			c-1.01-0.51-1.7-1.55-1.7-2.76c0-1.7,1.38-3.09,3.09-3.09c0.33,0,0.64,0.05,0.94,0.14v-2.9c-3.66,0.08-6.61,3.07-6.61,6.74
			c0,1.84,0.73,3.5,1.92,4.72c1.07,0.72,2.37,1.14,3.76,1.14c3.73,0,6.75-3.02,6.75-6.74V14.29z"/>
		<path class="st2" d="M26.73,13.05v-0.78c-0.95,0-1.89-0.27-2.7-0.77C24.75,12.28,25.69,12.83,26.73,13.05z M21.7,8.05
			c-0.02-0.14-0.04-0.28-0.06-0.42V7.16h-3.67v14.57c-0.01,1.7-1.39,3.07-3.09,3.07c-0.5,0-0.97-0.12-1.39-0.33
			c0.56,0.74,1.45,1.22,2.46,1.22c1.7,0,3.08-1.38,3.09-3.07V8.05H21.7z M15.82,15.88v-0.83c-0.31-0.04-0.62-0.06-0.93-0.06
			c-3.73,0-6.75,3.02-6.75,6.74c0,2.34,1.19,4.39,2.99,5.6c-1.19-1.22-1.92-2.88-1.92-4.72C9.22,18.95,12.16,15.96,15.82,15.88
			L15.82,15.88z"/>
	</g>
</g>
</svg>
