<?xml version="1.0" encoding="utf-8"?>
<!-- Generator: Adobe Illustrator 23.1.0, SVG Export Plug-In . SVG Version: 6.00 Build 0)  -->
<svg version="1.1" id="Layer_1" xmlns="http://www.w3.org/2000/svg" xmlns:xlink="http://www.w3.org/1999/xlink" x="0px" y="0px"
	 viewBox="0 0 36 36" style="enable-background:new 0 0 36 36;" xml:space="preserve">
<style type="text/css">
	.st0{fill:#00CCFF;}
	.st1{fill:#FFFFFF;}
</style>
<g>
	<circle class="st0" cx="18.07" cy="18.23" r="17.69"/>
	<g>
		<path class="st1" d="M13.68,19.1c0.2,5.99,2.4,10.08,4.38,10.08c1.98,0,4.18-4.1,4.38-10.08H13.68z"/>
		<path class="st1" d="M18.07,7.26c-1.98,0-4.18,4.1-4.38,10.08h8.77C22.25,11.36,20.05,7.26,18.07,7.26z"/>
		<path class="st1" d="M24.2,17.35h5.66c-0.38-5.22-4.15-9.5-9.12-10.65C22.72,8.57,24.06,12.51,24.2,17.35z"/>
		<path class="st1" d="M24.2,19.1c-0.15,4.84-1.48,8.78-3.45,10.65c4.97-1.15,8.73-5.43,9.12-10.65H24.2z"/>
		<path class="st1" d="M11.93,19.1H6.26c0.38,5.22,4.15,9.5,9.12,10.65C13.41,27.88,12.07,23.94,11.93,19.1z"/>
		<path class="st1" d="M11.93,17.35c0.15-4.84,1.48-8.78,3.45-10.65c-4.97,1.15-8.73,5.43-9.12,10.65H11.93z"/>
	</g>
</g>
</svg>
