<?xml version="1.0" encoding="utf-8"?>
<!-- Generator: Adobe Illustrator 23.1.0, SVG Export Plug-In . SVG Version: 6.00 Build 0)  -->
<svg version="1.1" id="Layer_1" xmlns="http://www.w3.org/2000/svg" xmlns:xlink="http://www.w3.org/1999/xlink" x="0px" y="0px"
	 viewBox="0 0 36 37" style="enable-background:new 0 0 36 37;" xml:space="preserve">
<style type="text/css">
	.st0{fill:#FF0000;}
	.st1{fill:#FFFFFF;}
</style>
<g>
	<circle class="st0" cx="18" cy="18.5" r="17.69"/>
	<path class="st1" d="M27.47,15.97c0-2.35-1.9-4.25-4.25-4.25H12.36c-2.35,0-4.25,1.9-4.25,4.25v5.06c0,2.35,1.9,4.25,4.25,4.25
		h10.86c2.35,0,4.25-1.9,4.25-4.25V15.97z M21.08,18.88l-4.87,2.41c-0.19,0.1-0.84-0.03-0.84-0.25v-4.95c0-0.22,0.65-0.36,0.85-0.25
		l4.66,2.54C21.08,18.49,21.28,18.77,21.08,18.88z"/>
</g>
</svg>
